PathFileType  4	(X/Y/Z) C:\Users\antoi\Documents\MyRepositories\mobilecap\ResultsAnalysis
DataRate	CameraRate	NumFrames	NumMarkers	Units	OrigDataRate	OrigDataStartFrame	OrigNumFrames
100.0	100.0	6	51	mm	100.0	103	136
Frame#	Time	r_knee			r_shank_antsup			r_ankle			r_calc			r_5meta			r_toe			L_knee			L_shank_antsup			L_ankle			L_calc			L_5meta			L_toe			r_sh2			r_sh3			r_sh4			L_sh2			L_sh3			r_thigh1			r_thigh2			r_thigh3			r_thigh4			r_thigh5			L_thigh1			L_thigh2			L_thigh3			L_thigh4			r.ASIS			r.PSIS			L.ASIS			L.PSIS			C7			R_Shoulder			L_Shoulder			R_Sternum			L_Sternum			R_humerus			R_elbow_med			R_elbow_lat			R_forearm			R_wrist_radius			R_wrist_ulna			L_humerus			L_elbow_med			L_elbow_lat			L_forearm			L_wrist_radius			L_wrist_ulna			R_HJC			L_HJC			R_HJC_reg			L_HJC_reg			
		X1	Y1	Z1	X2	Y2	Z2	X3	Y3	Z3	X4	Y4	Z4	X5	Y5	Z5	X6	Y6	Z6	X7	Y7	Z7	X8	Y8	Z8	X9	Y9	Z9	X10	Y10	Z10	X11	Y11	Z11	X12	Y12	Z12	X13	Y13	Z13	X14	Y14	Z14	X15	Y15	Z15	X16	Y16	Z16	X17	Y17	Z17	X18	Y18	Z18	X19	Y19	Z19	X20	Y20	Z20	X21	Y21	Z21	X22	Y22	Z22	X23	Y23	Z23	X24	Y24	Z24	X25	Y25	Z25	X26	Y26	Z26	X27	Y27	Z27	X28	Y28	Z28	X29	Y29	Z29	X30	Y30	Z30	X31	Y31	Z31	X32	Y32	Z32	X33	Y33	Z33	X34	Y34	Z34	X35	Y35	Z35	X36	Y36	Z36	X37	Y37	Z37	X38	Y38	Z38	X39	Y39	Z39	X40	Y40	Z40	X41	Y41	Z41	X42	Y42	Z42	X43	Y43	Z43	X44	Y44	Z44	X45	Y45	Z45	X46	Y46	Z46	X47	Y47	Z47	X48	Y48	Z48	X49	Y49	Z49	X50	Y50	Z50	X51	Y51	Z51	

103	1.02000000	1253.52872	538.31311	-67.09839	1298.66011	473.40005	-56.81931	1374.56872	116.06020	-81.33586	1333.00931	54.80431	-128.39837	1534.77317	85.32205	-48.91263	1558.93115	125.06832	-104.59733	1005.67743	526.88626	-338.03865	1009.76887	401.82327	-337.48868	877.70944	98.33777	-300.08168	801.33534	57.11605	-268.10452	1045.11963	56.16372	-256.72244	1030.05580	30.21955	-324.63154	1334.65692	366.64020	-48.84910	1228.05655	450.09236	-38.88466	1255.98008	338.40446	-43.15240	926.17205	430.34158	-362.40260	898.06200	312.62491	-354.99555	1209.88078	854.55971	-38.52229	1256.64110	755.96542	-52.88448	1218.42986	708.63067	-21.00794	1110.18433	803.81900	-29.93876	1162.83153	703.53966	-32.36415	1124.07640	839.74591	-381.01059	1114.40185	704.21000	-364.44897	1005.09964	848.50076	-382.78540	1004.42733	705.55542	-372.08950	1182.68206	1034.56225	-90.76516	983.51539	1073.95356	-147.33390	1163.02441	1031.68753	-349.55128	972.90878	1081.31924	-250.05643	982.79932	1582.91752	-229.39917	1041.88752	1534.75674	-48.15694	1066.01793	1546.39311	-387.11873	1131.36142	1509.61304	-189.28469	1135.90754	1507.89092	-243.18298	991.54161	1267.51788	43.65316	945.78900	1181.01633	-29.27485	958.99424	1187.07864	54.13096	1000.73170	1033.90572	79.58341	1023.73650	919.40060	75.56026	982.55133	927.82750	92.50413	1150.74792	1310.13094	-488.25398	1131.59456	1197.49668	-445.81078	1164.23035	1221.00726	-503.74156	1314.62995	1128.07168	-493.64830	1398.98967	1081.61374	-465.54412	1380.52307	1053.30011	-486.96305	1096.96260	956.10837	-88.68988	1077.58639	957.28624	-318.23460	1109.59738	949.35153	-125.94697	1092.04773	961.53942	-295.91298	
104	1.03000000	1260.70329	534.17029	-65.45900	1308.06331	471.20280	-55.87331	1398.66251	116.47637	-81.79755	1359.75321	53.42191	-128.79298	1560.03719	93.63782	-48.74672	1582.10739	134.34237	-104.26131	1013.62835	525.66676	-337.70065	1015.80513	400.36651	-337.23096	878.36146	99.22622	-299.88449	801.53263	57.84370	-267.91203	1045.21534	55.86616	-256.62582	1030.10889	30.15457	-324.68611	1348.26466	365.93878	-48.17127	1238.45215	445.14185	-37.76273	1270.78898	334.68468	-42.58946	932.72632	430.35728	-361.93999	902.52262	313.11488	-354.75575	1220.63472	850.97127	-38.44397	1265.77758	751.45856	-52.43627	1227.30620	704.97367	-19.73506	1120.29055	801.77756	-28.96602	1171.28983	700.04916	-31.12282	1134.54314	837.59499	-380.93528	1123.93120	702.11100	-364.66704	1015.58131	847.49648	-382.09716	1013.82574	704.45004	-371.55446	1196.25884	1031.96495	-90.46208	996.84209	1072.26716	-146.35016	1175.51561	1029.23611	-349.33531	985.99941	1079.64805	-249.07071	995.49669	1580.94567	-228.02075	1054.64288	1532.44746	-46.81869	1078.27983	1544.50673	-385.87102	1144.20454	1507.70649	-188.09655	1148.67365	1506.04980	-242.04456	1003.04030	1265.37199	44.62544	957.64080	1179.00780	-28.69935	970.19124	1185.00724	54.82939	1010.89206	1031.70475	80.76862	1033.37640	917.07506	77.05281	992.06008	925.73871	93.56121	1163.19746	1308.68505	-487.49434	1144.87369	1195.78555	-445.24232	1177.34941	1219.66621	-503.11320	1329.24521	1129.06990	-492.30187	1414.13580	1084.12654	-463.37685	1396.29932	1055.46447	-484.90043	1110.11684	953.89953	-88.16129	1089.88084	955.19223	-317.63149	1122.47928	947.09010	-125.44149	1104.53142	959.30847	-295.47762	
105	1.04000000	1268.63017	530.57272	-63.95761	1317.74095	469.22758	-54.99405	1419.97785	116.79154	-82.13613	1383.18733	52.06471	-128.77249	1582.11632	100.87694	-48.93627	1602.08512	142.28902	-104.39916	1021.90496	524.39723	-337.22404	1022.19371	398.88731	-336.96654	879.13896	100.30150	-299.75293	801.76433	58.93686	-267.76061	1045.30882	55.61161	-256.50401	1030.17945	30.07805	-324.73978	1361.19618	365.22351	-47.47742	1249.01639	441.05714	-36.55087	1284.77989	331.67934	-41.83781	939.70258	430.43205	-361.49065	907.31062	313.71291	-354.53124	1231.60238	847.83323	-38.36634	1275.42357	747.55635	-52.00741	1236.84721	701.79927	-18.58293	1130.64334	799.91642	-27.94019	1180.43541	696.82909	-29.94563	1145.26572	835.49298	-380.74996	1133.84332	700.05404	-364.84609	1026.30731	846.47522	-381.35997	1023.56086	703.32198	-370.98985	1209.79713	1029.40296	-90.09976	1010.13650	1070.63776	-145.34378	1188.02045	1026.80933	-349.07706	999.13947	1077.93538	-248.08347	1008.27841	1579.03297	-226.54561	1067.43688	1530.14547	-45.39396	1090.61204	1542.65577	-384.55613	1157.11369	1505.86881	-186.80533	1161.53494	1504.29457	-240.80907	1014.81830	1263.17437	45.64079	969.75029	1176.93524	-28.00355	981.70940	1182.86489	55.62964	1021.48091	1029.45927	82.01817	1043.53918	914.73327	78.58017	1002.10664	923.58783	94.69156	1175.53966	1307.16952	-486.63290	1157.95610	1193.99030	-444.55738	1190.27254	1218.22506	-502.37891	1343.50448	1129.78222	-490.88257	1428.81432	1086.21054	-461.16419	1411.56176	1057.26057	-482.83269	1123.25229	951.73006	-87.58103	1102.20715	953.10273	-316.98002	1135.25194	944.97208	-124.84786	1117.04079	957.05793	-294.98836	
106	1.05000000	1277.63685	527.64196	-62.67497	1327.95188	467.46372	-54.20866	1438.19709	116.69568	-82.24690	1402.90013	50.49875	-128.26601	1600.82887	106.18315	-49.47420	1618.86167	148.03444	-105.02151	1030.58978	523.09486	-336.61582	1028.99183	397.41119	-336.69690	880.08473	101.59223	-299.70717	802.07020	60.51399	-267.68014	1045.40704	55.39679	-256.37168	1030.27343	29.98754	-324.80208	1373.60645	364.36339	-46.80846	1259.92987	437.90003	-35.28044	1298.00515	329.32275	-40.87504	947.15268	430.58513	-361.07288	912.47364	314.44957	-354.34363	1242.94557	845.25537	-38.24826	1285.80569	744.38539	-51.59647	1247.23315	699.19692	-17.59093	1141.42049	798.29256	-26.92751	1190.49482	694.07401	-28.87383	1156.33696	833.47571	-380.38819	1144.21254	698.06612	-364.87383	1037.37181	845.39222	-380.57024	1033.73784	702.17471	-370.39396	1223.23102	1026.98253	-89.61399	1023.35640	1069.09222	-144.35437	1200.56159	1024.45773	-348.72325	1012.29677	1076.20441	-247.12544	1021.14966	1577.22521	-224.97793	1080.27636	1527.90003	-43.89286	1103.02813	1540.91019	-383.17917	1170.09210	1504.13398	-185.41698	1174.49451	1502.66448	-239.48148	1026.88231	1260.97574	46.70834	982.15062	1174.83532	-27.19373	993.56867	1180.70235	56.52282	1032.51932	1027.20880	83.31709	1054.22200	912.41121	80.13260	1012.70829	921.41504	95.88269	1187.78232	1305.63978	-485.65241	1170.84667	1192.16554	-443.72869	1202.98335	1216.72789	-501.51508	1357.37726	1130.20969	-489.37809	1443.01358	1087.85758	-458.93211	1426.30385	1058.67405	-480.77141	1136.32333	949.67927	-86.91179	1114.60425	951.04995	-316.25113	1147.91673	943.04872	-124.11520	1129.59213	954.83387	-294.39884	
107	1.06000000	1287.92318	525.42564	-61.65999	1338.85753	465.86861	-53.54500	1453.12577	115.94777	-82.10262	1418.63524	48.61867	-127.34439	1616.11693	108.89255	-50.30473	1632.57770	150.92160	-106.06071	1039.78769	521.78122	-335.93052	1036.23991	395.96510	-336.43483	881.23194	103.14005	-299.76058	802.50570	62.66970	-267.69463	1045.51585	55.20783	-256.25321	1030.40073	29.87975	-324.88126	1385.62734	363.24518	-46.22634	1271.30444	435.65520	-33.98369	1310.52398	327.51414	-39.71703	955.11101	430.83437	-360.70728	918.03906	315.35828	-354.20959	1254.84222	843.31220	-38.03732	1297.10907	742.01804	-51.18487	1258.58804	697.22575	-16.76355	1152.81622	796.96476	-25.98217	1201.63416	691.95607	-27.91774	1167.82153	831.57191	-379.80365	1155.08960	696.17020	-364.65481	1048.84881	844.21998	-379.73885	1044.44696	701.00387	-369.76101	1236.54266	1024.82006	-88.93801	1036.49758	1067.64766	-143.41992	1213.19060	1022.22741	-348.21875	1025.45819	1074.48863	-246.22342	1034.11179	1575.55939	-223.32771	1093.16924	1525.76349	-42.32655	1115.55077	1539.33726	-381.74320	1183.14233	1502.52775	-183.94089	1187.55334	1501.18419	-238.06857	1039.24028	1258.83236	47.83375	994.87213	1172.75329	-26.27990	1005.79070	1178.57484	57.49700	1044.03295	1025.00449	84.64838	1065.42743	910.15413	81.70009	1023.87906	919.27210	97.11983	1199.92799	1304.15077	-484.53690	1183.53797	1190.37710	-442.72532	1215.47165	1215.22791	-500.49847	1370.83171	1130.35987	-487.78512	1456.72194	1089.06438	-456.70659	1440.51155	1059.69475	-478.72929	1149.32619	947.83199	-86.11231	1127.14191	949.06447	-315.41074	1160.54058	941.34338	-123.19536	1142.23584	952.68751	-293.66158	
108	1.07000000	1299.46711	523.87143	-60.92490	1350.45665	464.37578	-53.02727	1464.80413	114.44446	-81.75948	1430.41936	46.47814	-126.20316	1628.11542	108.68495	-51.34406	1643.54272	150.66600	-107.38969	1049.60485	520.47972	-335.25126	1043.96098	394.57431	-336.20275	882.61073	104.99697	-299.91489	803.13247	65.46947	-267.81447	1045.62476	55.02081	-256.17186	1030.57097	29.75193	-324.98208	1397.32718	361.79568	-45.80228	1283.12837	434.21218	-32.69692	1322.38138	326.12151	-38.42706	963.59852	431.19635	-360.41162	924.01914	316.47344	-354.13391	1267.44557	842.01687	-37.67501	1309.42475	740.44395	-50.74394	1270.93570	695.88387	-16.09483	1164.99063	795.98387	-25.12558	1213.90444	690.56954	-27.07722	1179.74230	829.80229	-378.98490	1166.49621	694.38644	-364.14349	1060.77263	842.96292	-378.88528	1055.74194	699.80426	-369.08084	1249.77305	1023.02827	-88.01971	1049.59975	1066.31092	-142.56729	1225.97480	1020.15365	-347.52148	1038.63801	1072.82682	-245.39169	1047.16365	1574.06342	-221.60751	1106.12362	1523.78834	-40.70367	1128.20704	1537.99166	-380.24457	1196.26467	1501.06597	-182.38677	1200.70420	1499.85919	-236.57758	1051.90466	1256.79859	49.01692	1007.93342	1170.74140	-25.27490	1018.39415	1176.53706	58.53973	1056.04697	1022.90397	85.99663	1077.16674	908.01375	83.27283	1035.62709	917.21886	98.38994	1211.97596	1302.75205	-483.27499	1196.00928	1188.69745	-441.51661	1227.73595	1213.77920	-499.31356	1383.84081	1130.24647	-486.11037	1469.92661	1089.82964	-454.51255	1454.16177	1060.31553	-476.71845	1162.30950	946.26886	-85.14509	1139.90846	947.17125	-314.42495	1173.24735	939.85132	-122.05564	1155.05187	950.66761	-292.74179	
